<svg width="131" height="57" viewBox="0 0 131 57" fill="none" xmlns="http://www.w3.org/2000/svg">
<path d="M7.69336 36.4219C8.25977 36.4219 8.78711 36.3047 9.27539 36.0703C9.76367 35.8164 10.1836 35.4844 10.5352 35.0742C10.8867 34.6641 11.1602 34.2051 11.3555 33.6973C11.5508 33.1895 11.6484 32.6719 11.6484 32.1445C11.6484 30.6992 11.3945 29.332 10.8867 28.043C10.3789 26.7539 9.74414 25.5039 8.98242 24.293C8.2207 23.0625 7.39062 21.8418 6.49219 20.6309C5.61328 19.4199 4.79297 18.1895 4.03125 16.9395C3.26953 15.6699 2.63477 14.3516 2.12695 12.9844C1.61914 11.6172 1.36523 10.1523 1.36523 8.58984C1.36523 7.47656 1.57031 6.41211 1.98047 5.39648C2.41016 4.38086 3.01562 3.48242 3.79688 2.70117C4.57812 1.91992 5.52539 1.30469 6.63867 0.855469C7.77148 0.386719 9.05078 0.152344 10.4766 0.152344C11.5898 0.152344 12.752 0.474609 13.9629 1.11914C15.1738 1.74414 16.375 2.65234 17.5664 3.84375L13.4355 10.5527L13.3184 10.4648C13.5137 9.68359 13.6113 8.93164 13.6113 8.20898C13.6113 7.4082 13.4941 6.70508 13.2598 6.09961C13.0449 5.47461 12.7617 4.95703 12.4102 4.54688C12.0781 4.13672 11.707 3.82422 11.2969 3.60938C10.8867 3.39453 10.4863 3.28711 10.0957 3.28711C9.4707 3.28711 8.89453 3.4043 8.36719 3.63867C7.83984 3.85352 7.38086 4.15625 6.99023 4.54688C6.61914 4.91797 6.32617 5.36719 6.11133 5.89453C5.89648 6.42188 5.78906 6.97852 5.78906 7.56445C5.78906 8.77539 6.05273 10.0254 6.58008 11.3145C7.10742 12.584 7.76172 13.873 8.54297 15.1816C9.34375 16.4902 10.2031 17.8184 11.1211 19.166C12.0391 20.5137 12.8887 21.8613 13.6699 23.209C14.4707 24.5566 15.1348 25.9043 15.6621 27.252C16.1895 28.5801 16.4531 29.8984 16.4531 31.207C16.4531 32.3398 16.248 33.4141 15.8379 34.4297C15.4473 35.4258 14.8613 36.3047 14.0801 37.0664C13.3184 37.8281 12.3809 38.4336 11.2676 38.8828C10.1543 39.3125 8.88477 39.5273 7.45898 39.5273C6.3457 39.5273 5.18359 39.2148 3.97266 38.5898C2.76172 37.9453 1.56055 37.0273 0.369141 35.8359L4.5 30.0059L4.61719 30.0938C4.46094 30.4453 4.35352 30.7969 4.29492 31.1484C4.23633 31.4805 4.20703 31.8125 4.20703 32.1445C4.20703 32.75 4.30469 33.3164 4.5 33.8438C4.71484 34.3711 4.97852 34.8301 5.29102 35.2207C5.62305 35.5918 5.99414 35.8848 6.4043 36.0996C6.83398 36.3145 7.26367 36.4219 7.69336 36.4219ZM44.5781 0.269531C43.582 0.523438 42.8301 0.914062 42.3223 1.44141C41.8145 1.96875 41.4824 2.63281 41.3262 3.43359C41.209 6.05078 41.1211 8.64844 41.0625 11.2266C41.0234 13.8047 41.0039 16.3828 41.0039 18.9609C41.0039 21.7734 41.0332 24.5566 41.0918 27.3105C41.1504 30.0645 41.2285 32.8184 41.3262 35.5723C41.4824 36.373 41.8145 37.0566 42.3223 37.623C42.8301 38.1699 43.582 38.5801 44.5781 38.8535V39H33.416V38.8535C34.4121 38.5801 35.1348 38.1699 35.584 37.623C36.0527 37.0566 36.3652 36.373 36.5215 35.5723C36.6777 32.3301 36.8047 29.3223 36.9023 26.5488C37 23.7559 37.0586 21.0801 37.0781 18.5215C36.6289 18.4629 36.0234 18.4141 35.2617 18.375C34.5 18.3359 33.5039 18.3164 32.2734 18.3164C30.9062 18.3164 29.8223 18.3457 29.0215 18.4043C28.2207 18.4434 27.6055 18.4922 27.1758 18.5508V18.9609C27.1758 20.2305 27.1758 21.5879 27.1758 23.0332C27.1758 24.459 27.166 25.9043 27.1465 27.3691C27.1465 28.834 27.1367 30.2695 27.1172 31.6758C27.1172 33.082 27.1074 34.3809 27.0879 35.5723C27.0684 36.5293 27.0195 37.5059 26.9414 38.502C26.8828 39.498 26.6484 40.3965 26.2383 41.1973C25.8281 42.0176 25.1738 42.6816 24.2754 43.1895C23.377 43.7168 22.0879 43.9805 20.4082 43.9805L18.0645 40.2891L18.1523 40.1719C18.582 40.2695 18.9727 40.3477 19.3242 40.4062C19.6758 40.4844 19.9883 40.5234 20.2617 40.5234C20.6719 40.5234 21.0137 40.4453 21.2871 40.2891C21.5605 40.1523 21.7949 39.8984 21.9902 39.5273C22.1855 39.1562 22.332 38.668 22.4297 38.0625C22.5469 37.4375 22.6445 36.666 22.7227 35.748C22.8203 34.5566 22.9082 33.2578 22.9863 31.8516C23.0645 30.4453 23.123 29.0195 23.1621 27.5742C23.2207 26.1094 23.2598 24.6738 23.2793 23.2676C23.3184 21.8613 23.3379 20.5527 23.3379 19.3418C23.3379 16.666 23.2793 14.0293 23.1621 11.4316C23.0645 8.83398 22.918 6.08008 22.7227 3.16992C22.5273 2.48633 22.1758 1.90039 21.668 1.41211C21.1797 0.904297 20.4863 0.523438 19.5879 0.269531V0.123047H30.75V0.269531C29.7539 0.523438 29.002 0.914062 28.4941 1.44141C27.9863 1.94922 27.6543 2.60352 27.498 3.4043C27.4004 5.51367 27.3223 7.60352 27.2637 9.67383C27.2246 11.7441 27.1953 13.8145 27.1758 15.8848C27.625 15.9238 28.2598 15.9629 29.0801 16.002C29.9004 16.041 30.9746 16.0605 32.3027 16.0605C33.4551 16.0605 34.4121 16.0508 35.1738 16.0312C35.9551 15.9922 36.5898 15.9531 37.0781 15.9141C37.0391 13.8438 36.9805 11.7734 36.9023 9.70312C36.8242 7.61328 36.707 5.44531 36.5508 3.19922C36.3555 2.49609 36.0137 1.90039 35.5254 1.41211C35.0371 0.904297 34.334 0.523438 33.416 0.269531V0.123047H44.5781V0.269531ZM54.9199 36.832C56.0332 36.793 57.0488 36.7148 57.9668 36.5977C58.9043 36.4609 59.7832 36.1973 60.6035 35.8066C61.1699 35.5332 61.5801 35.123 61.834 34.5762C62.1074 34.0098 62.2246 33.3848 62.1855 32.7012H62.2734C62.5273 33.8145 62.7422 34.7715 62.918 35.5723C63.0938 36.3535 63.2402 36.998 63.3574 37.5059C63.4941 38.1113 63.6016 38.6094 63.6797 39H46.9512V38.8535C47.9473 38.5215 48.709 37.9844 49.2363 37.2422C49.7637 36.4805 50.0762 35.5723 50.1738 34.5176C50.3691 31.4707 50.4863 28.5605 50.5254 25.7871C50.584 22.9941 50.6133 20.3574 50.6133 17.877C50.6133 15.6895 50.5938 13.5215 50.5547 11.373C50.5352 9.20508 50.4082 6.94922 50.1738 4.60547C50.0762 3.55078 49.7637 2.65234 49.2363 1.91016C48.709 1.14844 47.9473 0.601562 46.9512 0.269531V0.123047H63.6797C63.6016 0.513672 63.4941 1.01172 63.3574 1.61719C63.2402 2.125 63.0938 2.7793 62.918 3.58008C62.7422 4.36133 62.5273 5.30859 62.2734 6.42188H62.1855C62.2246 5.73828 62.1074 5.12305 61.834 4.57617C61.5801 4.00977 61.1699 3.58984 60.6035 3.31641C59.7832 2.92578 58.9043 2.67188 57.9668 2.55469C57.0488 2.41797 56.0332 2.33008 54.9199 2.29102C54.8027 4.71289 54.7148 7.11523 54.6562 9.49805C54.5977 11.8613 54.5586 14.2246 54.5391 16.5879C55.1836 16.5879 55.7988 16.5879 56.3848 16.5879C56.9902 16.5879 57.5566 16.5586 58.084 16.5C59.0996 16.4023 59.8809 16.0996 60.4277 15.5918C60.9746 15.084 61.3262 14.459 61.4824 13.7168H61.5703V21.7441H61.4824C61.3262 21.002 60.9648 20.377 60.3984 19.8691C59.832 19.3613 59.041 19.0586 58.0254 18.9609C57.5176 18.9023 56.9805 18.873 56.4141 18.873C55.8477 18.873 55.2227 18.8633 54.5391 18.8438V18.9609C54.5391 21.8711 54.5684 24.8691 54.627 27.9551C54.7051 31.0215 54.8027 33.9805 54.9199 36.832ZM80.0566 36.2168C79.998 35.5527 79.9004 34.791 79.7637 33.9316C79.6465 33.0527 79.5195 32.1445 79.3828 31.207C79.2461 30.2695 79.1094 29.332 78.9727 28.3945C78.8555 27.4375 78.7578 26.5586 78.6797 25.7578C78.4648 23.6289 78.6992 21.7734 79.3828 20.1914C80.0859 18.6094 81.2969 17.3691 83.0156 16.4707L87.1172 22.2129L87.0293 22.3301C86.6387 22.1738 86.2676 22.0859 85.916 22.0664C85.5645 22.0273 85.2422 22.0078 84.9492 22.0078C84.1484 22.0859 83.5234 22.4277 83.0742 23.0332C82.6445 23.6387 82.4395 24.4883 82.459 25.582C82.4785 26.6172 82.5566 27.7012 82.6934 28.834C82.8496 29.9668 83.0156 31.1191 83.1914 32.291C83.3672 33.4434 83.5234 34.5859 83.6602 35.7188C83.7969 36.8516 83.8652 37.9453 83.8652 39H66.1406V38.8535C67.2539 38.4824 68.0449 37.8672 68.5137 37.0078C68.9824 36.1289 69.2559 35.1035 69.334 33.9316C69.5293 30.9043 69.6562 28.0918 69.7148 25.4941C69.7734 22.877 69.8027 20.3379 69.8027 17.877C69.8027 15.6895 69.7637 13.5215 69.6855 11.373C69.627 9.20508 69.5195 6.94922 69.3633 4.60547C69.207 3.55078 68.875 2.65234 68.3672 1.91016C67.8789 1.14844 67.1367 0.601562 66.1406 0.269531V0.123047H77.3027V0.269531C76.1895 0.640625 75.3789 1.23633 74.8711 2.05664C74.3633 2.85742 74.0703 3.87305 73.9922 5.10352C73.9336 5.92383 73.8848 6.86133 73.8457 7.91602C73.8262 8.9707 73.8066 10.1035 73.7871 11.3145C73.7676 12.5059 73.748 13.7559 73.7285 15.0645C73.7285 16.3535 73.7285 17.6523 73.7285 18.9609C73.7285 21.9688 73.7578 24.9668 73.8164 27.9551C73.875 30.9238 73.9629 33.873 74.0801 36.8027C74.3926 36.7832 74.7832 36.7539 75.252 36.7148C75.7402 36.6758 76.248 36.6367 76.7754 36.5977C77.3223 36.5586 77.8789 36.5098 78.4453 36.4512C79.0117 36.3926 79.5488 36.3145 80.0566 36.2168ZM91.6875 25.4941C91.6875 24.9473 91.6875 24.3125 91.6875 23.5898C91.707 22.8672 91.7168 22.1348 91.7168 21.3926C91.7363 20.6309 91.7461 19.8887 91.7461 19.166C91.7656 18.4434 91.7754 17.7988 91.7754 17.2324C91.7754 16.8223 91.7656 16.3535 91.7461 15.8262C91.7461 15.2793 91.7363 14.7324 91.7168 14.1855C91.7168 13.6191 91.707 13.0723 91.6875 12.5449C91.6875 11.998 91.6875 11.5098 91.6875 11.0801C91.6875 10.2598 91.6777 9.3125 91.6582 8.23828C91.6582 7.14453 91.5703 6.08008 91.3945 5.04492C91.2188 4.00977 90.916 3.0625 90.4863 2.20312C90.0762 1.32422 89.4512 0.689453 88.6113 0.298828V0.152344H96.873C97.9473 0.152344 98.9727 0.337891 99.9492 0.708984C100.926 1.08008 101.775 1.62695 102.498 2.34961C103.24 3.07227 103.826 3.9707 104.256 5.04492C104.705 6.09961 104.93 7.31055 104.93 8.67773C104.93 10.1621 104.578 11.4707 103.875 12.6035C103.191 13.7168 102.264 14.6152 101.092 15.2988C102.107 15.8066 103.025 16.4414 103.846 17.2031C104.686 17.9453 105.398 18.8047 105.984 19.7812C106.59 20.7578 107.049 21.8516 107.361 23.0625C107.693 24.2734 107.859 25.5918 107.859 27.0176C107.859 28.9121 107.557 30.6016 106.951 32.0859C106.346 33.5703 105.535 34.8301 104.52 35.8652C103.523 36.8809 102.361 37.6621 101.033 38.209C99.7051 38.7363 98.3184 39 96.873 39H88.6113V38.8535C89.5098 38.5215 90.1543 37.9746 90.5449 37.2129C90.9355 36.4512 91.1602 35.5527 91.2188 34.5176C91.375 32.877 91.4922 31.3145 91.5703 29.8301C91.6484 28.3457 91.6875 26.9004 91.6875 25.4941ZM96.1699 35.7773C97.459 35.7773 98.5625 35.5234 99.4805 35.0156C100.418 34.4883 101.18 33.8145 101.766 32.9941C102.371 32.1543 102.811 31.2168 103.084 30.1816C103.357 29.1465 103.494 28.1211 103.494 27.1055C103.494 25.9727 103.338 24.8301 103.025 23.6777C102.713 22.5254 102.234 21.4902 101.59 20.5723C100.965 19.6543 100.174 18.9023 99.2168 18.3164C98.2793 17.7305 97.1758 17.4375 95.9062 17.4375V26.5781C95.9062 28.082 95.9453 29.5859 96.0234 31.0898C96.1211 32.5742 96.1699 34.1367 96.1699 35.7773ZM96.0234 3.375C95.9258 4.21484 95.8477 5.10352 95.7891 6.04102C95.75 6.97852 95.7305 7.91602 95.7305 8.85352C95.7305 9.79102 95.7305 10.7188 95.7305 11.6367C95.75 12.5352 95.7695 13.375 95.7891 14.1562C96.6484 14.1562 97.3809 13.9902 97.9863 13.6582C98.5918 13.3066 99.0801 12.8672 99.4512 12.3398C99.8418 11.793 100.125 11.1875 100.301 10.5234C100.477 9.85938 100.564 9.21484 100.564 8.58984C100.564 8.00391 100.477 7.4082 100.301 6.80273C100.125 6.17773 99.8516 5.61133 99.4805 5.10352C99.1094 4.5957 98.6309 4.18555 98.0449 3.87305C97.4785 3.54102 96.8047 3.375 96.0234 3.375ZM113.514 38.8535C114.451 38.6387 115.184 37.9844 115.711 36.8906C116.258 35.7969 116.551 34.3809 116.59 32.6426L116.678 29.3027C116.482 27.877 116.238 26.4902 115.945 25.1426C115.672 23.7949 115.369 22.4668 115.037 21.1582C114.725 19.8301 114.393 18.5215 114.041 17.2324C113.689 15.9434 113.357 14.6445 113.045 13.3359C112.674 11.9883 112.273 10.5918 111.844 9.14648C111.414 7.70117 110.975 6.1875 110.525 4.60547C110.232 3.58984 109.812 2.70117 109.266 1.93945C108.738 1.1582 107.947 0.601562 106.893 0.269531L106.863 0.123047H117.41L117.439 0.269531C116.502 0.601562 115.848 1.12891 115.477 1.85156C115.125 2.55469 115.018 3.43359 115.154 4.48828C115.369 5.97266 115.633 7.4082 115.945 8.79492C116.277 10.1621 116.609 11.5195 116.941 12.8672C117.293 14.2148 117.635 15.582 117.967 16.9688C118.318 18.3359 118.631 19.7617 118.904 21.2461C119.178 19.7617 119.48 18.3359 119.812 16.9688C120.164 15.582 120.516 14.2148 120.867 12.8672C121.219 11.5195 121.551 10.1621 121.863 8.79492C122.176 7.4082 122.439 5.97266 122.654 4.48828C122.771 3.43359 122.654 2.55469 122.303 1.85156C121.951 1.12891 121.307 0.601562 120.369 0.269531L120.398 0.123047H130.945L130.916 0.269531C129.861 0.601562 129.061 1.1582 128.514 1.93945C127.986 2.70117 127.576 3.58984 127.283 4.60547C126.834 6.1875 126.395 7.70117 125.965 9.14648C125.535 10.5918 125.135 11.9883 124.764 13.3359C124.451 14.5664 124.129 15.7871 123.797 16.998C123.465 18.1895 123.143 19.4004 122.83 20.6309C122.518 21.8418 122.225 23.0723 121.951 24.3223C121.678 25.5723 121.443 26.8613 121.248 28.1895L121.189 32.4668C121.189 33.209 121.199 33.9023 121.219 34.5469C121.258 35.1719 121.365 35.748 121.541 36.2754C121.717 36.8027 121.99 37.291 122.361 37.7402C122.752 38.1699 123.299 38.541 124.002 38.8535V39H113.514V38.8535ZM7.64343 53.613C7.7461 53.613 7.8371 53.6527 7.91643 53.732L8.65843 54.537C8.24776 55.0457 7.74143 55.4353 7.13943 55.706C6.5421 55.9767 5.82343 56.112 4.98343 56.112C4.2321 56.112 3.55543 55.9837 2.95343 55.727C2.3561 55.4703 1.8451 55.1133 1.42043 54.656C0.995763 54.1987 0.669096 53.6527 0.44043 53.018C0.21643 52.3833 0.10443 51.6903 0.10443 50.939C0.10443 50.1783 0.225763 49.483 0.46843 48.853C0.711096 48.2183 1.05176 47.6723 1.49043 47.215C1.93376 46.7577 2.4611 46.403 3.07243 46.151C3.68376 45.8943 4.36043 45.766 5.10243 45.766C5.83976 45.766 6.4931 45.8873 7.06243 46.13C7.63643 46.3727 8.1241 46.69 8.52543 47.082L7.89543 47.957C7.8581 48.013 7.8091 48.062 7.74843 48.104C7.69243 48.146 7.6131 48.167 7.51043 48.167C7.44043 48.167 7.3681 48.1483 7.29343 48.111C7.21876 48.069 7.1371 48.02 7.04843 47.964C6.95976 47.9033 6.8571 47.838 6.74043 47.768C6.62376 47.698 6.48843 47.635 6.33443 47.579C6.18043 47.5183 6.00076 47.4693 5.79543 47.432C5.59476 47.39 5.36143 47.369 5.09543 47.369C4.64276 47.369 4.22743 47.4507 3.84943 47.614C3.4761 47.7727 3.1541 48.006 2.88343 48.314C2.61276 48.6173 2.40276 48.9907 2.25343 49.434C2.1041 49.8727 2.02943 50.3743 2.02943 50.939C2.02943 51.5083 2.10876 52.0147 2.26743 52.458C2.43076 52.9013 2.6501 53.2747 2.92543 53.578C3.20076 53.8813 3.5251 54.1147 3.89843 54.278C4.27176 54.4367 4.6731 54.516 5.10243 54.516C5.3591 54.516 5.5901 54.502 5.79543 54.474C6.00543 54.446 6.19676 54.4017 6.36943 54.341C6.54676 54.2803 6.71243 54.2033 6.86643 54.11C7.0251 54.012 7.18143 53.893 7.33543 53.753C7.3821 53.711 7.4311 53.6783 7.48243 53.655C7.53376 53.627 7.58743 53.613 7.64343 53.613ZM19.3825 50.939C19.3825 51.681 19.2589 52.3693 19.0115 53.004C18.7689 53.634 18.4235 54.18 17.9755 54.642C17.5275 55.104 16.9885 55.4657 16.3585 55.727C15.7285 55.9837 15.0285 56.112 14.2585 56.112C13.4932 56.112 12.7955 55.9837 12.1655 55.727C11.5355 55.4657 10.9942 55.104 10.5415 54.642C10.0935 54.18 9.74587 53.634 9.49854 53.004C9.25121 52.3693 9.12754 51.681 9.12754 50.939C9.12754 50.197 9.25121 49.511 9.49854 48.881C9.74587 48.2463 10.0935 47.698 10.5415 47.236C10.9942 46.774 11.5355 46.4147 12.1655 46.158C12.7955 45.8967 13.4932 45.766 14.2585 45.766C14.7719 45.766 15.2549 45.8267 15.7075 45.948C16.1602 46.0647 16.5755 46.2327 16.9535 46.452C17.3315 46.6667 17.6699 46.9303 17.9685 47.243C18.2719 47.551 18.5285 47.8963 18.7385 48.279C18.9485 48.6617 19.1072 49.077 19.2145 49.525C19.3265 49.973 19.3825 50.4443 19.3825 50.939ZM17.4575 50.939C17.4575 50.3837 17.3829 49.8867 17.2335 49.448C17.0842 49.0047 16.8719 48.629 16.5965 48.321C16.3212 48.013 15.9852 47.7773 15.5885 47.614C15.1965 47.4507 14.7532 47.369 14.2585 47.369C13.7639 47.369 13.3182 47.4507 12.9215 47.614C12.5295 47.7773 12.1935 48.013 11.9135 48.321C11.6382 48.629 11.4259 49.0047 11.2765 49.448C11.1272 49.8867 11.0525 50.3837 11.0525 50.939C11.0525 51.4943 11.1272 51.9937 11.2765 52.437C11.4259 52.8757 11.6382 53.249 11.9135 53.557C12.1935 53.8603 12.5295 54.0937 12.9215 54.257C13.3182 54.4203 13.7639 54.502 14.2585 54.502C14.7532 54.502 15.1965 54.4203 15.5885 54.257C15.9852 54.0937 16.3212 53.8603 16.5965 53.557C16.8719 53.249 17.0842 52.8757 17.2335 52.437C17.3829 51.9937 17.4575 51.4943 17.4575 50.939ZM32.0122 45.878V56H30.3532V49.462C30.3532 49.2007 30.3672 48.9183 30.3952 48.615L27.3362 54.362C27.1915 54.6373 26.9698 54.775 26.6712 54.775H26.4052C26.1065 54.775 25.8848 54.6373 25.7402 54.362L22.6462 48.594C22.6602 48.748 22.6718 48.8997 22.6812 49.049C22.6905 49.1983 22.6952 49.336 22.6952 49.462V56H21.0362V45.878H22.4572C22.5412 45.878 22.6135 45.8803 22.6742 45.885C22.7348 45.8897 22.7885 45.9013 22.8352 45.92C22.8865 45.9387 22.9308 45.969 22.9682 46.011C23.0102 46.053 23.0498 46.109 23.0872 46.179L26.1182 51.8C26.1975 51.9493 26.2698 52.1033 26.3352 52.262C26.4052 52.4207 26.4728 52.584 26.5382 52.752C26.6035 52.5793 26.6712 52.4137 26.7412 52.255C26.8112 52.0917 26.8858 51.9353 26.9652 51.786L29.9542 46.179C29.9915 46.109 30.0312 46.053 30.0732 46.011C30.1152 45.969 30.1595 45.9387 30.2062 45.92C30.2575 45.9013 30.3135 45.8897 30.3742 45.885C30.4348 45.8803 30.5072 45.878 30.5912 45.878H32.0122ZM37.5606 50.967C37.9059 50.967 38.2069 50.925 38.4636 50.841C38.7202 50.7523 38.9326 50.6287 39.1006 50.47C39.2732 50.3067 39.4016 50.1107 39.4856 49.882C39.5696 49.6487 39.6116 49.3897 39.6116 49.105C39.6116 48.8343 39.5696 48.5893 39.4856 48.37C39.4016 48.1507 39.2756 47.964 39.1076 47.81C38.9396 47.656 38.7272 47.5393 38.4706 47.46C38.2139 47.376 37.9106 47.334 37.5606 47.334H36.1536V50.967H37.5606ZM37.5606 45.878C38.2372 45.878 38.8229 45.9573 39.3176 46.116C39.8122 46.2747 40.2206 46.4963 40.5426 46.781C40.8646 47.0657 41.1026 47.4063 41.2566 47.803C41.4152 48.1997 41.4946 48.6337 41.4946 49.105C41.4946 49.595 41.4129 50.0453 41.2496 50.456C41.0862 50.862 40.8412 51.212 40.5146 51.506C40.1879 51.8 39.7772 52.0287 39.2826 52.192C38.7926 52.3553 38.2186 52.437 37.5606 52.437H36.1536V56H34.2706V45.878H37.5606ZM47.5756 52.178L46.3436 48.811C46.2829 48.6617 46.2199 48.4843 46.1546 48.279C46.0893 48.0737 46.0239 47.852 45.9586 47.614C45.8979 47.852 45.8349 48.076 45.7696 48.286C45.7043 48.4913 45.6413 48.671 45.5806 48.825L44.3556 52.178H47.5756ZM50.9006 56H49.4446C49.2813 56 49.1483 55.9603 49.0456 55.881C48.9429 55.797 48.8659 55.6943 48.8146 55.573L48.0586 53.508H43.8656L43.1096 55.573C43.0723 55.6803 42.9999 55.7783 42.8926 55.867C42.7853 55.9557 42.6523 56 42.4936 56H41.0236L45.0066 45.878H46.9246L50.9006 56ZM60.4813 45.878V56H59.5153C59.366 56 59.24 55.9767 59.1373 55.93C59.0393 55.8787 58.9436 55.7947 58.8503 55.678L53.5653 48.93C53.5933 49.238 53.6073 49.5227 53.6073 49.784V56H51.9483V45.878H52.9353C53.0146 45.878 53.0823 45.8827 53.1383 45.892C53.199 45.8967 53.2503 45.9107 53.2923 45.934C53.339 45.9527 53.3833 45.983 53.4253 46.025C53.4673 46.0623 53.514 46.1137 53.5653 46.179L58.8713 52.955C58.8573 52.7917 58.8456 52.6307 58.8363 52.472C58.827 52.3133 58.8223 52.1663 58.8223 52.031V45.878H60.4813ZM67.0824 52.08V56H65.2064V52.08L61.5174 45.878H63.1764C63.3397 45.878 63.4681 45.9177 63.5614 45.997C63.6594 46.0763 63.7411 46.1767 63.8064 46.298L65.6544 49.679C65.7617 49.8797 65.8551 50.0687 65.9344 50.246C66.0184 50.4233 66.0931 50.6007 66.1584 50.778C66.2191 50.6007 66.2891 50.4233 66.3684 50.246C66.4477 50.0687 66.5387 49.8797 66.6414 49.679L68.4824 46.298C68.5337 46.1953 68.6107 46.0997 68.7134 46.011C68.8161 45.9223 68.9467 45.878 69.1054 45.878H70.7714L67.0824 52.08ZM80.5726 54.446V56H74.6436V45.878H76.5266V54.446H80.5726ZM83.807 56H81.917V45.878H83.807V56ZM97.0493 45.878V56H95.3903V49.462C95.3903 49.2007 95.4043 48.9183 95.4323 48.615L92.3733 54.362C92.2286 54.6373 92.007 54.775 91.7083 54.775H91.4423C91.1436 54.775 90.922 54.6373 90.7773 54.362L87.6833 48.594C87.6973 48.748 87.709 48.8997 87.7183 49.049C87.7276 49.1983 87.7323 49.336 87.7323 49.462V56H86.0733V45.878H87.4943C87.5783 45.878 87.6506 45.8803 87.7113 45.885C87.772 45.8897 87.8256 45.9013 87.8723 45.92C87.9236 45.9387 87.968 45.969 88.0053 46.011C88.0473 46.053 88.087 46.109 88.1243 46.179L91.1553 51.8C91.2346 51.9493 91.307 52.1033 91.3723 52.262C91.4423 52.4207 91.51 52.584 91.5753 52.752C91.6406 52.5793 91.7083 52.4137 91.7783 52.255C91.8483 52.0917 91.923 51.9353 92.0023 51.786L94.9913 46.179C95.0286 46.109 95.0683 46.053 95.1103 46.011C95.1523 45.969 95.1966 45.9387 95.2433 45.92C95.2946 45.9013 95.3506 45.8897 95.4113 45.885C95.472 45.8803 95.5443 45.878 95.6283 45.878H97.0493ZM101.198 56H99.3077V45.878H101.198V56ZM110.534 47.425H107.482V56H105.599V47.425H102.547V45.878H110.534V47.425ZM113.748 47.376V50.183H117.29V51.632H113.748V54.495H118.242V56H111.858V45.878H118.242V47.376H113.748ZM128.899 50.939C128.899 51.681 128.776 52.3623 128.528 52.983C128.281 53.6037 127.933 54.138 127.485 54.586C127.037 55.034 126.498 55.3817 125.868 55.629C125.238 55.8763 124.538 56 123.768 56H119.911V45.878H123.768C124.538 45.878 125.238 46.004 125.868 46.256C126.498 46.5033 127.037 46.851 127.485 47.299C127.933 47.7423 128.281 48.2743 128.528 48.895C128.776 49.5157 128.899 50.197 128.899 50.939ZM126.967 50.939C126.967 50.3837 126.893 49.8867 126.743 49.448C126.599 49.0047 126.386 48.6313 126.106 48.328C125.831 48.02 125.495 47.7843 125.098 47.621C124.706 47.4577 124.263 47.376 123.768 47.376H121.801V54.502H123.768C124.263 54.502 124.706 54.4203 125.098 54.257C125.495 54.0937 125.831 53.8603 126.106 53.557C126.386 53.249 126.599 52.8757 126.743 52.437C126.893 51.9937 126.967 51.4943 126.967 50.939Z" fill="#C6612B"/>
</svg>
